# xmcd
#
# Track frame offsets: 
#        182
#        34287
#        63400
#        85580
#        110987
#        139567
#        162770
#        185612
#        219455
#        249095
#        274877
#        301627
#
# Disc length: 4542 seconds
#
# Revision: 0
# Processed by: cddbd v1.5.2PL0 Copyright (c) Steve Scherf et al.
# Submitted via: ExactAudioCopy v0.99pb4
#
DISCID=a011bc0c
DTITLE=Various Artist - Sky - The Compilation
DYEAR=1996
DGENRE=Electronic
TTITLE0=Cyberplasm/Entropic Autonomy
TTITLE1=DJ Johnny/Rock The Beat
TTITLE2=DJ Aza and Inverted U Function/4th Order
TTITLE3=Cyberplasm/The Prophecy
TTITLE4=Cameron Bonde/Three Four
TTITLE5=Cyberplasm/Imaginary Cityscape No2
TTITLE6=Inverted U Function and DJ Aza/4th Order
TTITLE7=Lustrecel and Self Sourcing/ Beautiful Groove
TTITLE8=Rock Apes/Doonty
TTITLE9=Lustrecel/All Spooked Up
TTITLE10=Rock Apes/Gamaka
TTITLE11=Cameron Bonde/Untitled
EXTD=
EXTT0=
EXTT1=
EXTT2=
EXTT3=
EXTT4=
EXTT5=
EXTT6=
EXTT7=
EXTT8=
EXTT9=
EXTT10=
EXTT11=
PLAYORDER=
